<svg width="133" height="39" viewBox="0 0 133 39" fill="none" xmlns="http://www.w3.org/2000/svg">
<path d="M13.4384 6.6352L18.3801 19.7845L22.7632 5.1312C21.603 2.93966 20.1849 1.99429 17.8645 1.34971V0.919998H34.7093V1.34971C31.9161 2.1232 29.9824 3.3264 31.2286 6.6352L36.0843 19.6126L37.9751 13.1239C39.9088 6.46331 40.0377 2.16617 35.9554 1.34971V0.919998H49.4914V1.34971C46.6123 2.29508 43.3035 4.70148 40.5534 12.3504L33.8069 31H32.7755L32.8185 30.8281L24.2672 8.69783L16.0167 31H14.9854L15.0283 30.8281L5.66057 6.6352C4.37143 3.36937 2.86743 2.1232 0.0742857 1.34971V0.919998H16.9191V1.34971C14.1259 2.1232 12.1922 3.3264 13.4384 6.6352ZM49.9765 4.09988C49.9765 1.95131 51.3946 0.490285 53.5861 0.490285C55.7347 0.490285 57.1957 1.95131 57.1957 4.09988C57.1957 6.29143 55.7347 7.75246 53.5861 7.75246C51.3946 7.75246 49.9765 6.29143 49.9765 4.09988ZM50.793 26.445V16.1749C50.793 13.9833 49.332 12.995 46.1091 12.995V12.6082L57.2387 8.69783L57.7973 9.08457C57.5395 9.81508 57.2387 12.952 57.2387 15.4014V26.445C57.2387 28.8944 58.7427 29.7968 61.5358 30.5703V31H46.4958V30.5703C49.289 29.7968 50.793 28.8944 50.793 26.445ZM72.2435 23.1362C66.0985 20.3861 63.6921 18.0656 63.6921 14.8427C63.6921 11.1042 67.0009 9.08457 72.4583 9.08457C76.8844 9.08457 79.9783 10.4167 81.998 12.4363L79.6775 19.5266H79.3767C78.0876 16.9483 73.7475 10.3307 70.4387 10.3307C69.2784 10.3307 68.6768 11.1472 68.6768 12.1785C68.6768 13.8544 71.8137 15.4873 74.9507 17.2062C81.3104 20.6869 83.2012 21.6322 83.2012 24.984C83.2012 29.2811 80.1072 31.4297 73.9623 31.4297C69.5363 31.4297 65.6688 30.3125 63.6921 28.3358L66.3134 21.0306H66.6142C68.0752 25.1559 71.8567 29.7968 76.6265 29.7968C77.7008 29.7968 78.2165 29.4101 78.2165 28.7655C78.2165 27.0896 76.2828 24.941 72.2435 23.1362ZM104.812 17.9797L89.0842 17.1202C90.5023 21.3314 94.9283 26.5739 99.6552 26.5739C102.019 26.5739 104.124 25.2848 105.37 22.6635H105.8C104.425 28.2069 100.815 31.4297 96.5183 31.4297C89.8147 31.4297 85.3457 26.9607 85.3457 20.2571C85.3457 13.5536 89.8147 9.08457 96.5183 9.08457C99.8701 9.08457 105.113 10.7605 105.113 17.6789L104.812 17.9797ZM88.7834 16.0459L99.1825 15.5303C97.9793 12.8661 95.0573 11.3191 92.6079 11.3191C91.5336 11.3191 90.5453 11.6199 89.8147 12.2645C88.6975 13.2098 88.4826 14.5849 88.7834 16.0459ZM125.708 17.6789L117.801 33.5783C116.211 36.7582 113.461 38.0473 111.055 38.0473C109.508 38.0473 108.09 37.5317 107.23 36.6293L107.918 31.4297H108.348C109.078 32.3321 111.656 33.2775 114.02 33.2775C115.739 33.2775 117.329 32.7618 117.93 31.3438L118.102 30.957L110.324 13.5966C109.293 11.2761 108.305 10.3737 106.328 9.81508V9.51429H118.36V9.81508C116.34 10.3737 116.641 11.5769 117.071 12.5653L121.583 22.7495L123.516 18.2375C125.45 13.6825 124.977 10.4167 122.055 9.81508V9.51429H132.068V9.81508C130.005 10.5026 128.286 12.4793 125.708 17.6789Z" fill="#FFCD00"/>
</svg>
